# xmcd
#
# Track frame offsets: 
#        150
#        12146
#        25341
#        37021
#        49971
#        63697
#        76707
#        91241
#        106343
#        117768
#        129693
#        140950
#        152592
#        165284
#        171518
#        181260
#        195176
#        207024
#        220589
#        232795
#
# Disc length: 3270 seconds
#
# Revision: 2
# Processed by: cddbd v1.5.2PL0 Copyright (c) Steve Scherf et al.
# Submitted via: ExactAudioCopy v0.99pb5
#
DISCID=030cc414
DTITLE=Various Artist - The ultimate Bluegrass album [CD1'2)
DYEAR=2002
DGENRE=Bluegrass
TTITLE0=Flatt and Scruggs - Roll in my sweet baby's arms
TTITLE1=The Monroe Brothers - The saints go marching in
TTITLE2=The Stanley Brothers - It's never too late
TTITLE3=Molly O'Day - When my time comes to go
TTITLE4=Roy Hall and His Blue Ridge Entertainers - Can you forgive me
TTITLE5=The Blue Sky Boys - Beautiful brown eyes
TTITLE6=Pope's Arkansas Mountaineers - Birmingham
TTITLE7=Jimmy Rodgers - In the jailhouse now
TTITLE8=Bill Monroe - Cryin' holy unto my lord
TTITLE9=Flatt and Scruggs - My cabin in Caroline
TTITLE10=Roy Hall and His Blue Ridge Entertainers - Wabash cannonball
TTITLE11=Roy Hall and His Blue Ridge Entertainers - Polecat blues
TTITLE12=Roy Acuff - Ida Red
TTITLE13=Charlie Monroe and Lester Flatt - Valley of peace
TTITLE14=The Monroe Brothers - I'm going through
TTITLE15=Charlie Poole, with The North Carolina Ramblers - Leaving hom
TTITLE15=e
TTITLE16=Bill Monroe - It's mighty dark to travel
TTITLE17=The Stanley Brothers - A vision of mother
TTITLE18=Flatt and Scruggs - Down the road
TTITLE19=The Carter Family - Hello stranger
EXTD=
EXTT0=
EXTT1=
EXTT2=
EXTT3=
EXTT4=
EXTT5=
EXTT6=
EXTT7=
EXTT8=
EXTT9=
EXTT10=
EXTT11=
EXTT12=
EXTT13=
EXTT14=
EXTT15=
EXTT16=
EXTT17=
EXTT18=
EXTT19=
PLAYORDER=
